<svg width="1200" height="800" xmlns="http://www.w3.org/2000/svg" viewBox="-6.061995 -3.70025 52.53729 22.2015"><path d="M31.2353 14.5628c.0489-.0017.0341-.1278-.042-.359-.2246-.6814-.2959-1.9025-.194-3.3228.0784-1.0941.0855-1.15.2252-1.762.077-.3372.1319-.4592.3266-.7268.4695-.645 1.0873-1.1978 1.561-1.3965.2866-.1202 1.2763-.3526 1.3645-.3204.0338.0124.0877.0872.1197.1662.032.079.0787.151.1038.1602.0744.0272.1283-.1897.1008-.4056-.0185-.1457.0132-.2835.115-.499.2637-.5587.5715-.7115.6192-.3075.0318.2695.1375.528.2297.5618.1102.0403.1213-.065.0392-.3732-.0414-.1552-.0613-.3734-.0442-.4848.0185-.1208-.027-.3404-.1123-.543-.1096-.2602-.128-.3826-.0779-.5195.1027-.2806.2813-.372.541-.277.1308.0478.313.0612.4499.033.1265-.026.3496-.0273.4958-.003.1657.0278.3247.011.4224-.0446.1938-.1102.3945-.136.5675-.0727.0875.032.2039.0024.345-.0879.4178-.267.7582.05.6358.5918-.0342.1515-.0371.4256-.0065.6092.0306.1836.0455.5224.033.753-.0123.2305-.0081.4808.0096.5563.0176.0755.0098.2886-.0174.4736s-.0226.4434.0101.5742c.0328.1308.0352.3976.0053.593-.0525.3434-.0415.3838.3332 1.2237.2167.4857.5087 1.029.6625 1.2328.1906.2524.2918.4564.3295.664.053.2923.048.3145-.203.8923-.267.6144-.5622 1.07-.7326 1.1306-.0753.0269-.1239.0067-.2064-.0857-.0828-.0928-.128-.1115-.1947-.0805-.1073.0499-.3674-.0404-.48-.1667-.0577-.0645-.063-.1512-.0171-.2768.1716-.4692.1499-1.079-.041-1.1489-.0353-.013-.1715-.1727-.3028-.3552-.3878-.5393-.6228-.5352-.8238.0142-.0908.2484-.0143 1.8622.0984 2.0764.0597.1133.1036.1329.3675.1634.2543.0294.329.0602.4941.2038.2544.2211.403.5186.3423.6848-.0315.086-.1664.1847-.3879.2838-.1868.0835-.3555.146-.375.139-.0722-.0265-.3756.0171-.3903.056-.0083.0222-.052.0269-.0968.0104-.045-.0164-.139-.0177-.2092-.003-.101.0213-.151.0007-.2395-.0985-.0788-.0882-.0877-.1305-.03-.1423.0451-.0093.0733-.0285.0626-.0426-.0107-.0142-.1271-.145-.2588-.2908-.1317-.1457-.31-.3692-.3962-.4965-.0862-.1273-.178-.2393-.2041-.2489-.0534-.0195-.541-.5978-.8842-1.0486-.3429-.4505-.7577-1.264-.7913-1.5518-.0533-.4574-.1837-.6319-.2785-.3727-.0775.212.0181.6558.2612 1.2124.1369.3136.2317.6173.2106.675-.0584.1597-.2888.1333-1.1407-.1307-.6118-.1896-.7786-.2235-.8007-.163-.0154.0421.0637.1494.1764.2391.2652.2111.2655.3444.0015.768-.2651.4254-.2745.614-.0351.7015.1787.0653.392.4244.3388.57-.0522.1426-.6594.3524-.8344.2884-.088-.0321-.1838-.0396-.213-.0167-.0291.023-.1592.0029-.289-.0445-.1885-.069-.2507-.0672-.3096.009-.0543.0704-.1184.0778-.2438.0284-.0936-.0369-.1362-.0682-.0948-.0697zM5.4773 6.6107c.1179-.0065.1817.229.0905.3336-.0294.0337-.284.0656-.5657.0708-.2818.0052-.5448.0102-.5846.0111-.0757.0017-.1283-.2068-.083-.3288.0146-.0391.2529-.073.5325-.0758.2783-.0028.553-.0077.6104-.011zm6.448-.0602c.1061.0011.1855.0052.2086.0137.05.0183.098.3395.0538.36-.0124.0058-.244.0157-.5148.022-.2708.0063-.5271.0135-.5696.016-.0661.0037-.1122-.2418-.0675-.3602.0106-.0282.571-.0544.8895-.0515zm6.8993-.1642a.0421.0421 0 01.0184.0017c.236.0863 1.2213 1.2791 1.1707 1.4173-.0085.0234.0684.249.1709.5015.1025.2525.2112.636.2414.8521l.055.393-.2279.0103c-.3021.0137-.3082.0097-.3172-.205-.0043-.1021-.0477-.3312-.0965-.5091-.0488-.178-.0812-.3484-.072-.3788.0231-.076-.3708-.751-.5806-.995-.1764-.2052-.4364-.4599-.6655-.6516l-.13-.1088.1897-.1762c.0913-.0847.193-.147.2436-.1514zm-14.232-.264c.3503-.0017 1.0112.0157 1.0194.0335.0035.0074-.0008.0811-.0095.1639-.015.1429-.041.1505-.5252.1536-.7926.0052-.7767.0087-.7582-.1672.0088-.0844.037-.163.0624-.1748.012-.0056.0943-.0084.2111-.009zm6.8836-.0677c.5413-.0031.6867.022.7044.1037.042.194-.0406.2603-.3307.265-.5993.0098-.7876-.0128-.828-.0996-.0666-.1435.0223-.2633.1973-.2661a24.351 24.351 0 01.257-.003zm7.7841-.1256c.0121.0044.1513.13.3093.2788.3733.3517.6503.6876.7792.9447.3693.7364.5197 1.076.5816 1.3138.1077.414.1783 1.0354.12 1.0581-.0286.0112-.1383.0179-.2435.0148l-.1914-.0056-.0921-.5026c-.171-.933-.5374-1.7059-1.073-2.264-.227-.2366-.4402-.4401-.4737-.4524-.0335-.0122-.0515-.0477-.0402-.0788.024-.0657.2911-.3187.3238-.3068zm-2.2944-.1493h.0001c.036-.0087.2504.1552.5107.392.2713.2468.6567.5665.8564.7104.1997.144.4854.3927.635.5528.2927.313.7703 1.0978.7356 1.2085-.0117.0372.0151.2314.0596.4317.0445.2003.0711.3909.0593.4234-.012.0325-.1115.0633-.2213.0685-.1978.0094-.1997.0074-.2157-.22-.0282-.4003-.3024-1.0524-.5887-1.4001-.148-.1798-.4411-.4624-.6513-.628-.2101-.1656-.442-.3756-.5154-.4666-.1332-.1653-.2609-.166-.227-.0013.0341.1657.0353 2.6446.0013 2.7375-.0091.0248-.0634.0418-.1208.0377a2.397 2.397 0 00-.2134-.003c-.085.0034-.111-.0445-.119-.218-.0054-.1224-.001-.2474.0102-.2777.0112-.0304.015-.3532.009-.7173-.0264-1.5676-.0298-2.5697-.0092-2.6264a.006.006 0 01.0047-.004zM4.4383 5.6182c1.111.0551 1.1375.0586 1.1577.1513.037.1706-.0212.2167-.2868.2267-.145.0055-.4192.002-.6095-.0076-.3345-.017-.3465-.0215-.3628-.1366-.0227-.1604.011-.2383.1014-.2338zm7.3888-.0363c.277-.0058.3326.008.3497.0864.0488.225-.0389.2685-.5106.2539v.0002c-.2577-.008-.5135-.0139-.5684-.0128-.0619.0011-.1004-.0366-.1014-.0992-.003-.1907.047-.232.2738-.2267.125.0028.3757.002.5569-.0017zm7.816-.1196a.0295.0295 0 01.0152.0007c.112.041.8662.8674 1.1055 1.2112.3758.5401.8059 1.547.8948 2.0949.1146.7062.1052.7506-.1598.7626-.1211.0054-.2324.0055-.2473 0-.015-.0055-.0465-.1844-.07-.3975-.0715-.6476-.2919-1.282-.6717-1.9338-.2907-.499-.4927-.7553-.835-1.0602-.1523-.1355-.2894-.267-.3048-.2922-.0376-.0615.1871-.3686.273-.3857zM4.7675 5.1731c.0581 0 .1226.0011.1938.003.5195.0145.5685.025.6004.1297.0556.1824.0055.2337-.2275.2328-.1201-.0004-.3893-.013-.5981-.0282-.324-.0234-.3848-.0418-.4148-.126-.0563-.158.0394-.2111.4462-.2113zm7.3153-.0626c.0808-.0038.1024.0326.0898.152-.0208.1977-.0559.2107-.5364.1985-.629-.016-.6478-.0209-.6414-.1697.0074-.17.0422-.1812.5545-.1782.235.0013.475.0002.5335-.0026zm4.2911-.2198h.0001c.016-.0007.061.0623.1084.154.0542.1048.1533.2671.2202.3608.086.1202.1182.274.1098.524-.0066.1945-.0063.5759.0007.8475.0545 2.1418.04 2.8582-.0579 2.853h-.0001c-.4033-.0239-.394-.0075-.371-.6552.0053-.1494-.0001-.7845-.0121-1.4111-.0243-1.2696-.0258-2.6062-.003-2.6687.0012-.0028.0027-.0043.005-.0044zm-.9101-1.0005v.0001c.1412-.008.19.0887.1935.339.0089.634.0047 1.4636-.0083 1.6329-.0076.0981-.005.5257.0058.95.0202.7978.0274 1.386.0275 2.2615v.5084l-.1515.002V9.584c-.0833.001-.1804-.0086-.2156-.0215-.059-.0215-.0707-.2953-.0754-1.74a645.0487 645.0487 0 00-.0064-1.3478c-.0158-2.7636-.0269-2.5212.1173-2.5628a.5236.5236 0 01.113-.0216zm.4914-.0013c.0482.002.103.013.1585.0332.1026.0376.1168.2405.1076 1.5378-.006.8636.0034 1.6595.0281 2.3649.024.6887.016 1.7302-.0134 1.74-.0096.0031-.0806.0139-.1577.0238-.252.0327-.2842-.025-.2835-.5082.0007-.4717-.0047-1.1252-.0207-2.4692-.0137-1.144-.0011-2.5953.023-2.6613.016-.0433.0778-.0644.1582-.061zm6.8389-.0009c.1177-.0022.2712.021.2867.0585.0282.068.0312 1.181.0062 2.3119-.0103.4671-.013 1.0028-.006 1.1904.0148.3982.0037 1.8074-.0157 1.9885-.0093.087-.0462.1219-.123.1164a2.439 2.439 0 00-.2177-.0036c-.1216.0049-.1496-.216-.1216-.9612.0088-.2323.0146-.6431.0126-.9129-.0017-.2697.005-.914.0152-1.4317.01-.5176.0176-1.2442.0168-1.6145-.0009-.3703.004-.6892.0106-.7087.0074-.0215.0652-.0318.1359-.033zm1.8683-.0115h.0001c.0849.0022.156.0152.1604.0375.0051.0258.0142.4202.0201.8764.006.4563.0164.9968.0233 1.2012.007.2043.003.657-.0085 1.006-.0116.349-.011 1.0276.0013 1.508.0123.4803.0096.9083-.006.9511-.0157.0428-.1007.0834-.1889.0902h.0003c-.258.0198-.3006-.024-.2857-.2934.0077-.1402.0066-.6703-.0025-1.1782-.009-.5079-.0082-1.2094.002-1.5589.0101-.3495.0113-1.076.0026-1.6146-.0087-.5385.009-.9877.0393-.9983.0589-.0206.1574-.0292.2422-.027zm-1.1448-.0154c.0621.0024.1141.0163.1252.0442.0124.0314.0215.1393.0204.2398-.0013.1004.0001.5275.003.949.003.4216-.0043 1.0793-.0163 1.4618-.012.3824-.0145.8081-.0056.946.0212.3269.0173 1.877-.0049 1.9797-.0095.0437-.1072.0834-.2173.0882-.2408.0106-.2371.0235-.2165-.7606.008-.2998.0094-.8084.0033-1.1302-.006-.3218-.002-.967.0092-1.4339.0112-.4668.0211-1.164.0222-1.5493.0009-.3854.0117-.728.024-.7613.018-.0493.1498-.0774.2533-.0734zm.4417-.0157c.0218 0 .0463.002.0736.0057.0985.0133.1827.0352.1874.0485.019.0544.0355 2.5227.0205 3.0556-.0089.3161-.0063.8687.0058 1.228.0272.8049-.0059 1.3416-.0849 1.377-.0329.0148-.1322.019-.2207.0093-.1803-.0196-.1729.0198-.1593-.8555.0042-.2675.0086-.954.0094-1.5255.0011-.5714.004-1.3546.0066-1.7405.0026-.3859.0009-.866-.004-1.067-.0103-.4269.0131-.535.1656-.5356zm-12.3432-.3475c.0715 0 .1462.0053.2248.0156.3248.0426.3104.0336.7058.439.2152.2207.2787.4896.279 1.183.0002.3364.0077.9996.0167 1.4738.009.4742.0086.8828-.0008.908-.0094.025-.0052.398.0092.8288.0144.4309.0198.8965.0121 1.0347l-.0141.2512-.1845-.0028c-.2912-.0044-.3086-.0275-.2962-.3952.0064-.191.0049-.6252-.0034-.9646-.0083-.3394-.01-.7803-.0038-.98.006-.1995.0039-.902-.0048-1.5612-.0128-.9679-.0384-1.239-.1333-1.4096-.2801-.5033-1.115-.423-1.316.1265-.0544.1489-.0807.9973-.0483 1.5611.008.1375.011.5926.0066 1.0115-.0137 1.3399-.0155 1.7282-.0099 2.1468.0043.3153-.0141.4165-.0799.4399-.1575.0561-.4076.0032-.4063-.086a87.7553 87.7553 0 01.0157-1.1169c.011-.5452.0047-1.4399-.02-2.851-.0196-1.126.0484-1.3883.4527-1.7442.2392-.2105.4887-.3085.7987-.3084zm3.9645-.1373c.3023-.002.6944.009.7484.0287.0794.029.0848.0615.025.1467-.0424.0603-.0884.1398-.1024.1767-.014.037-.0697.051-.124.031-.0542-.0197-.27-.0299-.4797-.0225s-.3945.0086-.4106.0027c-.0339-.0123-.0445-.3297-.0116-.345.0244-.0113.1734-.0172.3549-.0183zm13.6896-.0298c.234.0065.4823.0854.7715.2392.2175.1157.4033.227.4128.2475.0095.0204-.031.0947-.0899.165-.0738.0881-.1382.1114-.207.075-.405-.2143-.863-.3529-1.0344-.313-.3718.0867-.5316.445-.3058.6858.145.1547.375.2836 1.0018.561 1.0096.447 1.3084.7374 1.4642 1.4237.1574.6938.0885 1.225-.2389 1.8404-.2791.5249-.6775.8692-1.3051 1.128-.5443.2244-1.0124.2891-1.588.2194-.2959-.0358-.4043-.0744-.8823-.3144-.351-.1762-1.1525-.7783-1.1274-.8469.009-.0248.068-.0974.131-.1613.0792-.0804.1367-.0956.1862-.0494.7832.731 1.5832 1.1064 2.2298 1.0465.826-.0766 1.6322-.565 1.9889-1.2048.2313-.415.3008-.7258.2562-1.1462-.0792-.7474-.3177-1.105-.95-1.424-.7807-.394-.8678-.4392-1.1885-.6168-.5358-.2968-.714-.5768-.5875-.9228.0918-.2512.2152-.3713.5307-.5166.1767-.0815.3498-.1203.5317-.1152zm-3.2176-.0306c.3176-.0048.3612.0345.3435.2026-.0202.1926-.1006.2205-.5766.1998-.1952-.0083-.5621-.013-.8155-.01-.2534.003-.5397-.0044-.6363-.0162-.1528-.0187-.9854-.01-1.3507.0142-.069.0046-.4514.0154-.85.024-.7849.017-.9276-.0069-.93-.156-.0025-.1678.0286-.1947.2368-.204.3406-.0155 2.9955-.0459 3.5462-.0407.285.0027.6805-.0015.879-.0092a6.7988 6.7988 0 01.1536-.0045zm-7.1201-.3887c.0808.0015.1645.0356.3185.1141.1575.0803.3391.2027.4037.272.1814.1947.357.6508.3396.8818-.0417.5548-.4955 1.2548-1.2898 1.99-.254.235-.477.4194-.4955.4097-.087-.0453-.2848-.2104-.3603-.3005-.0461-.055-.249-.245-.4509-.422-1.049-.9204-1.2766-1.8988-.5987-2.5753.3293-.3287.5588-.389.8862-.2326.1437.0686.3199.1656.3917.2155.1166.0812.1507.072.32-.0851.104-.0968.2744-.2036.3784-.2376.061-.02.1086-.0309.157-.03zm-7.1866-.0274c.1958-.0032.3.0335.5655.154.6594.2994 1.0245.8175 1.1156 1.5833.0125.1055.0182.4104.0127.6775-.0055.267.0024.8479.0175 1.2907.0151.4428.0207.899.0125 1.0137-.0082.1147-.0051.5561.007.981.0309 1.0856.0412 1.0254-.1782 1.0347-.2395.01-.32-.0631-.2981-.2712.0097-.0917.0074-.5145-.0052-.9395-.0126-.425-.018-.8123-.012-.8606.006-.0482.0018-.5905-.0097-1.205-.0114-.6144-.0107-1.2667.0017-1.4492.015-.2207-.0239-.4475-.1157-.6762-.38-.947-1.484-1.1583-2.2551-.4318-.278.2619-.3686.5637-.37 1.232-.0027 1.326.0023 2.2567.0146 2.6922.0139.4946-.0177 1.7928-.0452 1.8623-.0091.0229-.1014.0448-.205.0487-.2327.0086-.2255.0446-.2175-1.0832.0058-.8215.003-1.2406-.0209-3.0858-.0142-1.1023.0713-1.474.4401-1.9116.3169-.376.7605-.5932 1.3095-.6412a3.4656 3.4656 0 01.2359-.0148zm4.0825-.03c.1308.0005.2865.0052.4704.0139.2568.0122.5214.02.5878.0176.113-.0042.1094.0034-.0587.1187-.0987.0677-.1888.1486-.2002.1797-.0114.0311-.1078.0504-.2143.0426-.1065-.0076-.3837-.0114-.6159-.0083-.5606.0076-.6404-.0266-.562-.2412.0315-.0859.2003-.124.5929-.123zm2.5124-.0163v.0001c.1474.0026.133.0409-.0223.1961-.136.136-.1715.1306-.3623-.0542-.1243-.1203-.1255-.1312-.0126-.1331.0677-.0011.2136-.0046.324-.008a1.473 1.473 0 01.0732-.001zm6.384-.0304c.8632-.0022 1.5663.0053 1.6255.027.074.027.0561.2657-.0225.3022-.0356.0165-.5308.0273-1.1004.024-.8859-.0054-2.2898.0104-3.4372.0384-.5.0122-.5573-.0048-.5426-.1602.0072-.0755.0365-.147.065-.159.0897-.0378 1.9735-.0687 3.4122-.0724zm4.446-.0445c.3994.0033.8228.1269 1.2961.3751.3731.1957.4202.2613.3068.4282l-.091.1338-.3722-.186c-.2047-.1024-.4798-.2198-.6113-.2608-.768-.2396-1.6635.238-1.6725.892-.006.4344.232.6384 1.5072 1.2919 1.01.5176 1.255.841 1.261 1.6645.0051.7079-.417 1.3483-1.154 1.7506-.3442.1879-.9014.2907-1.3104.2418-.1995-.024-.3983-.0593-.4416-.0788-.5798-.261-1.3655-.8334-1.34-.9763.0079-.0446.05-.1081.0935-.1412.068-.0516.1356-.0186.4802.2338.557.4081 1.2499.6672 1.6648.6225.4354-.0468.9476-.3094 1.1595-.5943.2644-.3554.4374-.8884.4004-1.233-.0645-.6002-.4535-.9556-1.6698-1.5256-.8164-.3826-1.1022-.6937-1.1262-1.2257-.0267-.5888.44-1.1652 1.0875-1.343a1.934 1.934 0 01.532-.0695zm-10.4515-.416c.52.0056.5708.054.846.206.2013.1112.4554.3063.573.4398.5058.5747.5393 1.5137.0802 2.2465-.1921.3066-.2262.319-.4134.151-.0804-.0721-.089-.1178-.0331-.1765.136-.1429.3868-.7746.3937-.9918.0168-.5278-.2819-1.0795-.729-1.3463-.321-.1916-.447-.2043-1.6948-.1708-.7757.0208-2.066.0267-2.3711.011-.112-.0059-.1728-.13-.1273-.2595.0281-.0799.2246-.0974.9787-.087.3013.0041.8387.0022 1.1944-.0046.4577-.0086.7947-.0157 1.0492-.0177.0954-.0009.1793-.0009.2535-.0001zm6.5424-.0458a37.994 37.994 0 01.3618.0005c.701.005.7472.0386.7664.1243.053.236-.0731.2536-1.5845.2208-.3003-.0065-1.1578.0052-1.9054.026-1.5604.0432-1.6003.0426-1.6315-.0245-.0541-.1166.0702-.2942.2014-.2876.0743.0037.2478-.0005.3855-.0093.1378-.0088.8864-.0236 1.6635-.033.7708-.0093 1.3326-.0158 1.7428-.0172zm-13.5919-.0054c.2175-.0038.351.0391.7495.1877.5124.191.5923.238.856.5025.5681.57.748 1.2217.7571 2.7438.0037.6168.0115 1.2507.0365 2.9655.0063.432-.0001.8171-.0144.856-.0268.0733-.4246.0801-.4581.008-.0105-.0226-.006-.077.01-.1208.0161-.0439.0224-.4292.014-.8562l-.0415-2.1438c-.0146-.7521-.0169-1.3935-.0052-1.4255.0547-.1498-.0869-.8732-.2322-1.186-.32-.6891-1.0895-1.1483-1.819-1.0854-.8315.0716-1.4887.5544-1.7676 1.2984-.0803.2143-.113.4795-.1156.9394-.002.3525-.007.9286-.011 1.2804-.004.3517-.0001.8898.0085 1.1956.0086.3059.0139.762.012 1.0135-.002.2516-.0007.6046.0027.7844.0035.1902-.0212.3393-.0591.3564-.0359.0161-.1365.0215-.2237.012-.1892-.0206-.1855.012-.179-1.5653.0023-.5878.0022-1.4548-.0004-1.9266-.009-1.6212.0046-1.8506.1302-2.1941.3434-.939 1.1103-1.5338 2.0919-1.6228.104-.0094.1859-.0158.2584-.017zm17.4913-.0488a3.655 3.655 0 01.3402.0199c.535.0552.9433.2095 1.4747.5569.2857.1867.305.2462.12.3698-.1036.0691-.1312.0613-.4016-.1144-.4446-.2889-1.0874-.4976-1.5194-.4935-.6938.0066-1.3328.3918-1.5938.9612-.2646.5772-.2316.9857.1132 1.4034.1536.1861.3264.2954 1.0178.6438.458.2309.9367.5023 1.0637.6031.2838.2255.4649.641.4341.9962-.0275.318-.2464.7922-.4533.9822-.2552.2343-.774.4344-1.0881.4197-.411-.0193-.5853-.0654-.9457-.2502-.2756-.1413-.8965-.6055-.8778-.6564.0208-.057.2386-.2439.2705-.2322.0212.0078.1305.09.243.1829.3424.2824.8675.5384 1.1688.5699.5241.0546 1.0649-.349 1.1725-.875.1026-.5015-.1764-.878-.9645-1.3024-1.3128-.7068-1.5596-.8985-1.687-1.309-.1135-.3655-.1013-.659.045-1.0838.1744-.5067.4115-.8061.8532-1.0772.354-.2173.743-.3192 1.2145-.3149zM6.5275 1.8916c.0989-.0017.1984.0094.2103.035.0084.0182.0136.2473.0117.5092-.0019.262.0012.987.0067 1.6113a175.9916 175.9916 0 01-.0035 3.3014c-.0036.319-.009 1.9673-.0074 2.234.0003.0362-.0728.0713-.1623.0782-.2393.0185-.2528.0038-.2635-.2843-.0103-.2768-.0002-1.63.0183-2.4549.0127-.568.0085-1.5824-.0111-2.6645a80.4795 80.4795 0 01-.0123-1.3805c.001-.336-.001-.6752-.0044-.7536-.0033-.0785.0015-.1635.0108-.1889.0095-.026.1078-.0406.2067-.0424zm-4.5304-.002a.6722.6722 0 01.1467.0248c.1565.0448.1613.0662.1774.786.0153.6832.0327 2.9264.0287 3.7106-.001.1847.0077.697.0193 1.1384.0312 1.1907.0392 2.081.0189 2.0878-.01.0033-.081.0141-.1582.0241-.248.0321-.2834-.025-.2752-.444a17.3163 17.3163 0 00-.0093-.8443c-.0261-.6566-.0548-2.1846-.0417-2.2204.014-.0385-.01-2.9075-.0307-3.6738-.0082-.3038.0131-.5653.0475-.5813a.111.111 0 01.037-.0076.3399.3399 0 01.0396-.0002zm.674-.0013c.182.0028.1858.0085.2028.2977.0095.162.0186.6253.02 1.0295.0015.4042.0068.9566.0119 1.2276.005.271.0067.6706.0035.888-.0033.2175.004.531.0164.6966.0122.1657.015.346.0063.4005-.0088.0545-.0025.6406.0141 1.3022.033 1.3094.0313 1.9063-.0052 1.9156-.013.003-.0986.0097-.1904.0147-.2073.0113-.2249-.0324-.21-.5197.0061-.1996-.0026-.8908-.0193-1.536-.0337-1.303-.0405-1.892-.0381-3.286.0009-.521-.0065-1.2587-.0166-1.6392-.0101-.3805-.01-.7148.0003-.743.0103-.0281.1023-.05.2043-.0484zm.4883-.0117c.0374.002.0838.0165.1413.0327.149.0421.1555.0737.1803.8787.014.4593.0227.9854.0191 1.1691-.0083.4223.0033 1.5871.0198 1.9949.0069.1707.0102.5984.0075.9506-.0027.3522-.0013 1.0932.0033 1.6467.0045.5534-.0124 1.0406-.0377 1.0826-.0253.042-.1213.0698-.2134.0615-.1513-.0135-.1685-.0354-.1771-.2266-.0052-.1164-.0042-.226.0022-.2437.0065-.0176-.0046-.6271-.0246-1.3543-.02-.7273-.0292-1.3412-.0205-1.3644.0087-.0232.0108-.2504.0049-.5049a65.9863 65.9863 0 01-.013-1.0444 124.87 124.87 0 00-.0188-1.4748c-.0256-1.3806-.035-1.612.1267-1.6037zm3.9818-.0045c.1392.0022.185.0211.1842.0766-.004.2501-.0044 1.4068-.0009 2.031.004.7103.0012 1.3941-.0136 3.267a99.4785 99.4785 0 00.0016 1.6026c.0047.3952 0 .7412-.01.769-.0102.0279-.0786.0453-.1519.0388-.3228-.0288-.298.1752-.2709-2.2318.0195-1.7284.0155-4.3662-.0079-5.1879-.0096-.3373.0139-.3692.2694-.3654zm-1.186-.0075a.4005.4005 0 01.0392.002c.1718.0156.223.1253.1808.3868-.0104.064-.0154.3423-.0114.6187.0248 1.685.0297 2.1338.0326 2.9885.0017.522.0014 1.1273-.0007 1.3452-.0063.6684-.0169 2.3148-.0155 2.4038.0009.0537-.069.083-.194.081-.1074-.0017-.2034-.0059-.2134-.0095-.0254-.0093-.04-.3862-.0374-.9616.0012-.2687.0012-.7228-.0002-1.0092a33.4546 33.4546 0 01.01-.9444c.007-.233.0022-.7396-.0105-1.126-.0126-.3864-.0142-.7262-.0036-.7553.0167-.0457.0122-1.113-.0102-2.4283-.0076-.4453.0469-.5915.2342-.5916zm-2.1995-.0022c.0452 0 .1018.011.1715.031.151.0431.1554.0712.1855 1.1563.017.6117.0327 1.388.035 1.7253.0023.3372.0059.8339.008 1.1038.0022.2698-.003.722-.0115 1.005-.0085.2827-.0036 1.0097.0109 1.6154.0145.6056.0026 1.1283-.0264 1.1615-.029.0332-.0976.0574-.1528.0535v-.0001a2.3933 2.3933 0 00-.2084-.0026c-.0682.0027-.107-.0258-.1049-.0773.0018-.0449-.0026-.6066-.0098-1.2484-.0072-.6417-.0075-1.3161-.0007-1.4986.0068-.1825.0085-.5121.0038-.7325-.0087-.4072-.0162-1.3283-.0165-1.9937-.0001-.5829-.0215-1.6331-.0397-1.9521-.014-.248.0202-.3465.156-.3466zm3.9508-.0202c.11-.0011.2058.01.2126.0245.014.0304.0186.7482.007 1.1099-.0042.133-.0067.5173-.0055.8541a265.164 265.164 0 01-.002 1.5895c-.0023.5373.0027 1.1562.011 1.3752.0083.219.0006.4378-.0171.4861-.0177.0483-.0199.1185-.0048.156.015.0374.023.321.0176.63-.0054.3092-.0017.7616.0082 1.0054.01.2437.0105.4638.0012.489-.0092.0252-.118.0504-.242.056-.1239.0053-.2283.009-.232.0075-.0099-.0037-.0194-1.0873-.0161-1.81.0084-1.8241.0093-2.4014.0052-3.209-.0073-1.4233.0054-2.463.032-2.6182.0205-.12.0578-.1443.2248-.146zm11.1876-.0034c.3824.0036.5202.0353.7754.1347.86.3347 1.3009.9258 1.4028 1.8805.0705.6602-.1192 1.3307-.536 1.8955-.1217.165-.178.1691-.3199.0238-.0895-.0917-.0895-.1316 0-.2862.057-.0988.1813-.3487.276-.5554.4827-1.0535-.022-2.25-1.1183-2.652-.2763-.1012-.4954-.114-1.4968-.0879-1.951.051-2.6203.0336-2.6426-.0691-.06-.2754-.038-.279 1.6657-.2697a82.3281 82.3281 0 001.5634-.0107c.0924-.0017.1753-.0029.2504-.0035a11.185 11.185 0 01.18 0zm6.9237-.0519c.3195.0013.4326.0218.492.0735.0809.0706.1064.2468.04.2776-.0216.01-.4208.0118-.887.0039-.4663-.0078-.9846-.0087-1.1516-.0015-.1671.007-.8726.025-1.5676.04v-.0001c-.695.015-1.3109.0277-1.3686.0286-.0786.0011-.101-.0385-.0884-.1574.02-.1898.0341-.1942.694-.2099.2715-.0065.7578-.0193 1.0807-.0285.323-.0092.9034-.016 1.2899-.015.3865.0009.8691-.002 1.0726-.0064.158-.0035.2875-.0051.394-.0047zm-14.3124-.05a3.8163 3.8163 0 01.3368.0126c1.1063.089 1.9727.6972 2.4506 1.7205.2503.5359.3445 1.0684.3257 1.8384-.0048.1964-.0004.7592.0098 1.2507.0101.4914.0157 1.154.0122 1.4723-.0081.74-.0009 1.2155.0218 1.4054.0152.1277-.0018.156-.113.188-.2626.0758-.355-.02-.3503-.3636.0054-.3995 0-.9129-.026-2.4712-.0115-.6769-.0167-1.4149-.0119-1.64.0264-1.22-.3888-2.0947-1.2513-2.6363-.7093-.4454-1.591-.4924-2.366-.1262-.5064.2393-.779.4843-1.1203 1.0072-.3227.4943-.402.8796-.3847 1.8665.0184 1.0473.0235 2.446.0119 3.264-.0057.4016-.0008.808.0108.903.0276.2274.0323.222-.1884.2186-.1053-.0015-.2013-.0065-.2133-.0109-.0408-.0149-.0572-.9378-.0334-1.8775.006-.2333.002-.565-.0088-.7371-.0107-.1721-.0165-.5365-.0129-.8098.0036-.2732.0023-.7966-.0029-1.163-.0156-1.0956.2746-1.849.9771-2.5368.5232-.5121 1.1592-.7683 1.9265-.7748zm17.6335-.0418c.2025.0009.421.0214.674.0591.4405.0658.7597.2006 1.4788.6244.3397.2003.3762.2686.2258.4212-.0846.0858-.1388.0979-.206.046a2.6336 2.6336 0 00-.208-.1407c-.7806-.47-.9863-.5526-1.503-.6038-.8812-.0873-1.5764.1212-2.1125.6335-.2882.2754-.3347.3487-.4849.765-.1835.5085-.2122.82-.11 1.1927.14.5099.4294.771 1.4118 1.274 1.0346.5298 1.3024.802 1.2677 1.2888-.0303.4239-.527.8428-.9585.8084-.3611-.0289-.8922-.2847-1.22-.5879l-.1732-.1603.1445-.1327c.0794-.073.1497-.1304.1562-.1276.0065.0028.1482.1097.3147.2374.1665.1278.4198.275.5628.3274.2243.082.2878.0793.4606-.0198.3789-.2173.3684-.6603-.022-.9289-.2144-.1475-.2127-.1466-1.1577-.6648-.7649-.4194-1.0448-.6906-1.1542-1.1182-.318-1.2416.2144-2.4163 1.31-2.8907.4893-.2118.8576-.3045 1.303-.3025zM33.671 0L0 .0002v12.9706h30.5921v-.2337c.0225-.0562.028-.1431.015-.2556-.0154-.1327-.0232-.3497-.0174-.482.0208-.4736.0408-.4555-.4944-.4449-.2629.0053-.6682.0028-.9007-.0053-.2325-.0082-.6314-.0086-.8865-.001-.8436.0248-1.384.034-1.754.03-.201-.0022-.739.0017-1.1956.0084a80.4536 80.4536 0 01-1.5617.0058 122.357 122.357 0 00-1.3441-.0038c-.337.0015-.8723-.002-1.1898-.0075-.3175-.0056-1.4094.0073-2.4263.0287-2.1886.046-2.637.0476-2.9086.0096-.112-.0157-.5371-.0196-.9447-.009-1.4214.0376-1.811.0405-5.3653.0382-.454-.0002-1.0878.0015-1.4083.0041-.3205.0026-.72.0038-.8877.0027-.1678-.001-.5685.0037-.8906.0106-.3221.0067-.9147.0093-1.317.0054-.4022-.004-1.0386.0053-1.4141.0205-.8566.0347-1.4152.0164-1.6044-.0528-.117-.0428-.1414-.0856-.1208-.212.03-.184.0759-.2326.1829-.1935.107.0392 1.1823.0561 1.704.0269.2382-.0134.6257-.0242.8612-.0242.2354.0001.9804-.0053 1.6556-.0119.6751-.0066 1.4473-.0108 1.716-.0098a188.705 188.705 0 001.9569.0005 99.12 99.12 0 011.1003.0017c.3018.0026.6612-.0022.7988-.0106.1376-.0084.497-.0126.7984-.0092.3015.0034.9358 0 1.4095-.0078.818-.0132 1.3597-.0084 2.3164.021.2328.007 1.0605.0015 1.8392-.0125 2.517-.0452 3.1283-.0523 3.685-.0424 1.0896.0194.8461.0186 2.8407.009a83.3595 83.3595 0 001.1987-.0166 40.3295 40.3295 0 011.1947-.0058c.318.0044.7263-.0054.9075-.0219.1811-.0164.6087-.0194.9503-.0065.8522.0323 1.4737.0121 1.5224-.0491.0644-.0809-.089-.1105-.453-.0875-.1851.0117-.482.0051-.6598-.0147-.1778-.0198-.6169-.0231-.9758-.0075-.359.0157-.9.0275-1.2023.0266-.3024-.0011-1.1028.0054-1.7788.0142-1.5509.0203-2.9512.0202-3.7306 0-.3332-.0088-1.0363-.005-1.5625.0081-2.443.0612-3.9735.0725-4.089.0303-.0405-.0149-.6205-.0163-1.289-.0034-.6683.013-1.544.0196-1.9459.0147-.4018-.0049-.8984-.0015-1.1036.0077-.2052.0092-.5911.011-.8577.004-.2665-.007-.8162-.0092-1.2215-.0046-.4054.0046-.985.009-1.288.01-.3031.0009-1.1576.0046-1.899.0082-.7413.0037-1.5815.0057-1.867.0048-.2856-.0009-.6228.0092-.7495.0227-.1267.0133-.6075.0132-1.0684-.0005-.7837-.0232-.8403-.0326-.8725-.1445-.019-.0657-.0197-.1602-.0015-.2099.0348-.0953.1632-.1035 1.0644-.0675.2818.0113.6675.0102.8572-.0026.1896-.0127.6064-.0236.9262-.0242a255.9727 255.9727 0 001.779-.0148c.6586-.0075 1.3485-.0123 1.5328-.0106.8606.008 1.7508.0036 3.5842-.0176a92.4143 92.4143 0 011.7436-.0013c.4522.0051 1.2331.003 1.7352-.0045.5022-.0075 1.0904.002 1.3072.0212.2168.0192.797.0246 1.2894.012 2.3214-.0598 3.3905-.0734 4.4548-.0568.301.0046.796.0057 1.1.0024a46.782 46.782 0 011.0693.0025c.2841.0047.9188.0001 1.4103-.0101.4915-.0103 1.1828-.019 1.536-.0192a57.753 57.753 0 001.291-.0184c.3569-.01.783-.0086.947.0028.626.0435 1.0009.0227 1.03-.0572.0191-.052-.0076-.0823-.0756-.0855-.7364-.0344-2.191-.0376-2.307-.005-.0375.0105-.2458.0158-.463.0118-.2171-.004-.9351.0027-1.5956.0149-.6604.0122-1.4882.0182-1.8396.0132-1.0721-.0152-3.6374-.022-3.8797-.0104-.17.0082-1.3829.0336-2.2804.0478-.406.0064-.8086.016-.8947.0215-.3075.0196-.967-.0064-.9819-.0386-.0084-.018-.6153-.0175-1.3488.0013-.7334.019-1.3541.0266-1.3793.0174-.0252-.0093-.597-.0094-1.271-.0004-.6738.009-1.3157.0103-1.4263.0029-.1107-.0073-.5232-.0083-.9166-.0023a169.53 169.53 0 01-1.3587.0145c-.354.002-1.155.0098-1.78.0173s-1.3689.0097-1.6531.0052c-.2843-.0046-.8634.0052-1.287.0215-.4235.0164-.8787.0192-1.0114.0063-.1327-.0129-.39-.0234-.572-.0233-.3537 0-.3922-.0288-.3655-.273.0213-.1955-.0013-.1924 1.1921-.1634.5168.0124 1.025.012 1.1296-.0013.1045-.0133.4927-.021.8626-.0173.3699.0037 1.199-.0033 1.8426-.0155 1.4888-.0282 1.9318-.0309 4.1984-.0246.3528.0011.8765-.0008 1.1636-.004.287-.0033.8105-.0049 1.1632-.0034.3527.0013 1.161-.0029 1.7963-.0095.6353-.0067 1.1924.0013 1.238.0181.0455.0166.1715.0246.28.0175.1086-.0071.6531-.0172 1.21-.0224a200.366 200.366 0 001.8756-.0278c1.7132-.0358 2.0075-.037 4.6855-.0188.453.0031 1.2539-.0044 1.7797-.0167.526-.0123.9764-.0152 1.001-.0064.056.02.7587.0036 1.1976-.028.1812-.0129.7038-.012 1.1613.0023.4576.0141.8687.0182.9137.009.061-.0126.0851-.0691.0951-.223.0266-.411.3663-1.3906.6014-1.734.501-.7319 1.1134-1.262 1.7554-1.5196a1.927 1.927 0 00.1508-.0681l.0302-.0273.181-.1124c.0168-.017.0294-.0329.0345-.0469.0143-.039.0254-.158.0321-.3059v.3115l.1312-.0813z" fill="#cd0f1e"/></svg>